<svg width="900" height="900" viewBox="0 0 900 900" fill="none" xmlns="http://www.w3.org/2000/svg">
<g clip-path="url(#clip0)">
<path fill-rule="evenodd" clip-rule="evenodd" d="M41.492 41.2283L36.1805 67.7857L31.3781 68.7462L33.6302 57.4859L7.05447 62.801L4.8024 74.0614L0 75.0218L5.31148 48.4645L10.1139 47.504L8.1026 57.5604L34.6783 52.2452L36.6896 42.1888L41.492 41.2283ZM62.7954 52.7408L60.77 62.868L56.0759 63.8068L58.1014 53.6796L44.8894 41.3989L45.0664 40.5136L51.4937 39.2282L61.3478 48.7132L75.9751 34.3319L82.4024 33.0464L82.2254 33.9317L62.7954 52.7408ZM80.6658 58.8888L85.9773 32.3314L109.05 27.7167C116.669 26.193 119.52 28.5804 118.429 34.0335C117.338 39.4866 113.256 43.2605 105.637 44.7843L87.3661 48.4385L85.4682 57.9283L80.6658 58.8888ZM113.627 34.994C114.037 32.9402 112.747 31.9406 109.064 32.6772L89.7457 36.5408L88.4001 43.2687L107.718 39.4051C111.401 38.6685 113.216 37.0478 113.627 34.994ZM119.266 51.1686L124.577 24.6112L155.558 18.415L154.546 23.4786L128.367 28.7143L127.269 34.2029L152.184 29.2199L151.193 34.1773L126.278 39.1602L125.081 45.1445L151.621 39.8366L150.608 44.9002L119.266 51.1686ZM162.397 32.7523L160.357 42.9504L155.555 43.9108L160.866 17.3534L185.384 12.4499C192.1 11.1067 195.533 12.8336 194.393 18.5346C193.387 23.5628 189.741 26.3656 184.103 27.8672L190.071 36.1578L189.894 37.043L184.261 38.1696L178.465 29.5387L162.397 32.7523ZM189.583 19.5306C189.958 17.6538 188.791 16.7316 185.397 17.4104L164.634 21.5629L163.402 27.7242L184.165 23.5717C187.559 22.8929 189.208 21.4073 189.583 19.5306ZM236.91 2.14474L231.599 28.7021L226.796 29.6626L229.048 18.4023L202.473 23.7174L200.22 34.9778L195.418 35.9382L200.73 9.38084L205.532 8.42036L203.521 18.4768L230.096 13.1616L232.108 3.10522L236.91 2.14474ZM237.52 27.5179L242.832 0.960481L247.634 0L242.323 26.5574L237.52 27.5179Z" transform="translate(-43 148.363) scale(1.1767 0.784465) rotate(-45)" fill="#9013FE"/>
<path fill-rule="evenodd" clip-rule="evenodd" d="M0 72.4927L5.21184 46.4335L35.0454 40.4668L34.0169 45.6092L8.98707 50.6151L7.91691 55.9659L31.2131 51.3067L30.2054 56.3448L6.90928 61.004L4.8037 71.532L0 72.4927ZM34.276 65.6376L39.4878 39.5784L70.4771 33.3805L69.4834 38.3492L43.2978 43.5863L42.2207 48.9718L67.1422 43.9876L66.1693 48.8519L41.2478 53.8362L40.0734 59.7082L66.6202 54.3989L65.6265 59.3675L34.276 65.6376ZM77.9471 39.0248C77.5719 40.901 80.1599 40.6169 89.9325 39.4296C101.801 37.9898 107.373 38.0429 106.199 43.9149C105.212 48.8487 99.5661 52.9799 87.8639 55.3204C77.2452 57.4441 71.6861 55.4205 69.5442 53.6474L72.7813 49.5977C75.4164 50.6384 80.0073 51.955 89.2535 50.1058C96.8022 48.5961 100.971 46.9951 101.346 45.1188C101.722 43.2426 99.3254 43.0881 88.7721 44.3648C76.5851 45.8349 72.0746 45.5028 73.1587 40.0825C74.2636 34.558 81.468 30.7822 91.0754 28.8607C99.0936 27.2571 104.915 27.7939 108.278 30.2234L105.048 34.2383C101.406 33.0321 96.6927 32.6739 90.1553 33.9814C83.8708 35.2383 78.3571 36.9748 77.9471 39.0248ZM144.942 23.3908L130.026 26.3741L125.835 47.3257L121.032 48.2865L125.222 27.3349L110.305 30.3182L111.327 25.2106L145.964 18.2832L144.942 23.3908ZM144.834 43.5258L150.046 17.4666L154.849 16.5059L149.637 42.565L144.834 43.5258ZM174.198 37.653L169.864 38.5198L158.396 16.6305L158.569 15.7618L163.987 14.6783L173.08 32.8398L190.498 9.37615L195.915 8.29261L195.742 9.16125L174.198 37.653ZM207.22 6.03205L211.699 5.13632L223.817 26.8956L223.643 27.7643L218.261 28.8406L215.174 22.9537L196.031 26.7822L190.234 34.4461L184.852 35.5224L185.026 34.6538L207.22 6.03205ZM212.874 18.677L208.501 10.3788L200.305 21.1908L212.874 18.677ZM227.363 27.0199L232.575 0.960742L237.379 0L233.189 20.9516L257.135 16.1623L256.113 21.2699L227.363 27.0199Z" transform="translate(109.05 149.891) scale(1.1767 0.784465) rotate(-45)" stroke="#9013FE"/>
<path fill-rule="evenodd" clip-rule="evenodd" d="M0 64.3015L5.41771 37.213L10.2214 36.2522L5.86557 58.0314L29.8118 53.2422L28.75 58.5515L0 64.3015ZM32.759 57.7498L38.1767 30.6613L42.9804 29.7005L37.5627 56.7891L32.759 57.7498ZM72.6331 49.7752L52.6093 33.0453L48.2896 54.6439L43.4859 55.6046L48.9036 28.5161L55.2242 27.2519L75.2336 44.0541L79.5678 22.3832L84.3715 21.4225L78.9538 48.511L72.6331 49.7752ZM84.8772 47.3263L90.2949 20.2378L121.284 14.0399L120.251 19.2048L94.0657 24.4419L92.946 30.0402L117.867 25.0559L116.856 30.1125L91.9347 35.0968L90.7139 41.2007L117.261 35.8914L116.228 41.0562L84.8772 47.3263ZM152.974 20.8083L155.669 7.16289L160.508 6.19492L157.735 20.0643C155.958 28.9493 148.647 34.9882 137.956 37.1264C127.302 39.2574 121.79 35.7828 123.567 26.8978L126.341 13.0285L131.144 12.0677L128.414 25.7203C127.287 31.3548 131.383 33.0668 139.076 31.5281C146.769 29.9895 151.847 26.4427 152.974 20.8083ZM160.761 32.1492L166.179 5.0607L189.259 0.444813C196.879 -1.07937 199.718 1.36943 198.606 6.93162C197.493 12.4938 193.398 16.3295 185.777 17.8537L167.501 21.5089L165.565 31.1885L160.761 32.1492ZM193.802 7.89239C194.221 5.79754 192.936 4.77179 189.251 5.5086L169.928 9.37325L168.556 16.2357L187.879 12.371C191.563 11.6342 193.383 9.98724 193.802 7.89239Z" transform="translate(266.273 154.116) scale(1.1767 0.784465) rotate(-45)" fill="#9013FE"/>
<path fill-rule="evenodd" clip-rule="evenodd" d="M41.492 41.2283L36.1805 67.7857L31.3781 68.7462L33.6302 57.4859L7.05447 62.801L4.8024 74.0614L0 75.0218L5.31148 48.4645L10.1139 47.504L8.1026 57.5604L34.6783 52.2452L36.6896 42.1888L41.492 41.2283ZM62.7954 52.7408L60.77 62.868L56.0759 63.8068L58.1014 53.6796L44.8894 41.3989L45.0664 40.5136L51.4937 39.2282L61.3478 48.7132L75.9751 34.3319L82.4024 33.0464L82.2254 33.9317L62.7954 52.7408ZM80.6658 58.8888L85.9773 32.3314L109.05 27.7167C116.669 26.193 119.52 28.5804 118.429 34.0335C117.338 39.4866 113.256 43.2605 105.637 44.7843L87.3661 48.4385L85.4682 57.9283L80.6658 58.8888ZM113.627 34.994C114.037 32.9402 112.747 31.9406 109.064 32.6772L89.7457 36.5408L88.4001 43.2687L107.718 39.4051C111.401 38.6685 113.216 37.0478 113.627 34.994ZM119.266 51.1686L124.577 24.6112L155.558 18.415L154.546 23.4786L128.367 28.7143L127.269 34.2029L152.184 29.2199L151.193 34.1773L126.278 39.1602L125.081 45.1445L151.621 39.8366L150.608 44.9002L119.266 51.1686ZM162.397 32.7524L160.357 42.9504L155.555 43.9109L160.866 17.3535L185.384 12.45C192.1 11.1068 195.533 12.8337 194.393 18.5347C193.387 23.5629 189.741 26.3656 184.103 27.8673L190.071 36.1579L189.894 37.0431L184.261 38.1697L178.465 29.5387L162.397 32.7524ZM189.583 19.5306C189.958 17.6539 188.791 16.7316 185.397 17.4105L164.635 21.5629L163.402 27.7242L184.165 23.5718C187.559 22.893 189.208 21.4074 189.583 19.5306ZM236.91 2.14474L231.599 28.7021L226.796 29.6626L229.048 18.4023L202.473 23.7174L200.22 34.9778L195.418 35.9382L200.73 9.38084L205.532 8.42036L203.521 18.4768L230.096 13.1616L232.108 3.10522L236.91 2.14474ZM237.52 27.5179L242.832 0.960481L247.634 0L242.323 26.5574L237.52 27.5179Z" transform="translate(407 147.363) scale(1.1767 0.784465) rotate(-45)" stroke="#9013FE"/>
<path fill-rule="evenodd" clip-rule="evenodd" d="M0 25.908V0.408019H28.084V5.44002H4.522V10.676H26.452V15.606H4.522V25.908H0ZM32.2659 25.9081V0.408062H61.4379V5.27006H36.7879L36.7879 10.5401L60.2479 10.5401V15.3001H36.7879V21.0461H61.7779V25.9081H32.2659ZM69.87 7.684C69.87 9.52 72.352 9.758 81.702 10.54C93.058 11.492 98.532 12.682 98.532 18.428C98.532 23.256 93.806 26.316 82.79 26.316C72.794 26.316 66.946 23.12 64.498 20.876L66.878 17.408C69.666 19.006 74.426 21.284 83.13 21.284C90.236 21.284 94.01 20.502 94.01 18.666C94.01 16.83 91.63 16.184 81.532 15.334C69.87 14.348 65.382 13.09 65.382 7.786C65.382 2.38 71.706 0 80.75 0C88.298 0 94.112 1.734 97.886 4.896L95.506 8.33C91.698 6.358 87.006 5.032 80.852 5.032C74.936 5.032 69.87 5.678 69.87 7.684ZM132.498 5.40602H118.456V25.908H113.934V5.40602H99.892V0.408019H132.498V5.40602ZM136.34 25.9078V0.407803H140.862V25.9078H136.34ZM163.982 25.9078H159.902L144.364 1.2578V0.407803H149.464L161.942 20.7738L174.42 0.407803L179.52 0.407803V1.2578L163.982 25.9078ZM190.162 0.408106H194.378L210.528 25.0581L210.528 25.9081H205.462L201.28 19.2781L183.26 19.2781L179.078 25.9081H174.012V25.0581L190.162 0.408106ZM198.186 14.4499L192.27 5.0999L186.354 14.4499H198.186ZM214.03 25.9078V0.407847L218.552 0.407847V20.9098H241.094V25.9078L214.03 25.9078Z" transform="translate(601.744 170.479) rotate(-45)" fill="#9013FE"/>
<path fill-rule="evenodd" clip-rule="evenodd" d="M0 25.5V0H4.522L4.522 20.502H27.064L27.064 25.5H0ZM30.838 25.5001V8.63167e-05H35.36V25.5001H30.838ZM68.3738 25.5002L45.4578 5.16822V25.5002H40.9358V0.000215792H46.8858L69.8018 20.4002V0.000215792L74.3238 0.000215792V25.5002L68.3738 25.5002ZM79.8998 25.5002V0.000172633H109.072V4.86217H84.4218V10.1322H107.882V14.8922L84.4218 14.8922L84.4218 20.6382H109.412V25.5002H79.8998ZM141.474 12.8521L141.44 0.000129475H145.996V13.0561C145.996 21.4201 140.012 25.9081 129.948 25.9081C119.918 25.9081 113.832 21.4201 113.832 13.0561V0.000129475H118.354V12.8521C118.354 18.1561 122.706 20.6381 129.948 20.6381C137.19 20.6381 141.474 18.1561 141.474 12.8521ZM151.334 25.5V0H173.06C180.234 0 183.498 2.958 183.498 8.194C183.498 13.43 180.234 16.388 173.06 16.388L155.856 16.388V25.5L151.334 25.5ZM178.976 8.19399C178.976 6.22199 177.514 4.96399 174.046 4.96399L155.856 4.96399V11.424H174.046C177.514 11.424 178.976 10.166 178.976 8.19399Z" transform="translate(751.744 169.753) rotate(-45)" stroke="#9013FE"/>
<path fill-rule="evenodd" clip-rule="evenodd" d="M0 72.4927L5.21184 46.4335L35.0454 40.4668L34.0169 45.6092L8.98707 50.6151L7.91691 55.9659L31.2131 51.3067L30.2054 56.3448L6.90928 61.004L4.8037 71.532L0 72.4927ZM34.276 65.6376L39.4878 39.5784L70.4771 33.3805L69.4834 38.3492L43.2978 43.5863L42.2207 48.9718L67.1422 43.9876L66.1693 48.8519L41.2478 53.8362L40.0734 59.7082L66.6202 54.3989L65.6265 59.3675L34.276 65.6376ZM77.9471 39.0248C77.5719 40.901 80.1599 40.6169 89.9325 39.4296C101.801 37.9898 107.373 38.0429 106.199 43.9149C105.212 48.8487 99.5661 52.9799 87.8639 55.3204C77.2452 57.4441 71.6861 55.4205 69.5442 53.6474L72.7813 49.5977C75.4164 50.6384 80.0073 51.955 89.2535 50.1058C96.8022 48.5961 100.971 46.9951 101.346 45.1188C101.722 43.2426 99.3254 43.0881 88.7721 44.3648C76.5851 45.8349 72.0746 45.5028 73.1587 40.0825C74.2636 34.558 81.468 30.7822 91.0754 28.8607C99.0936 27.2571 104.915 27.7939 108.278 30.2234L105.048 34.2383C101.406 33.0321 96.6927 32.6739 90.1553 33.9814C83.8708 35.2383 78.3571 36.9748 77.9471 39.0248ZM144.942 23.3908L130.026 26.3741L125.835 47.3257L121.032 48.2865L125.222 27.3349L110.305 30.3182L111.327 25.2106L145.964 18.2832L144.942 23.3908ZM144.834 43.5258L150.046 17.4666L154.849 16.5059L149.637 42.565L144.834 43.5258ZM174.198 37.653L169.864 38.5198L158.396 16.6305L158.569 15.7618L163.987 14.6783L173.08 32.8398L190.498 9.37615L195.915 8.29261L195.742 9.16125L174.198 37.653ZM207.22 6.03205L211.699 5.13632L223.817 26.8956L223.643 27.7643L218.261 28.8406L215.174 22.9537L196.031 26.7822L190.234 34.4461L184.852 35.5224L185.026 34.6538L207.22 6.03205ZM212.874 18.677L208.501 10.3788L200.305 21.1908L212.874 18.677ZM227.363 27.0199L232.575 0.960742L237.379 0L233.189 20.9516L257.135 16.1623L256.113 21.2699L227.363 27.0199Z" transform="translate(-115.95 374.891) scale(1.1767 0.784465) rotate(-45)" stroke="#9013FE"/>
<path fill-rule="evenodd" clip-rule="evenodd" d="M0 64.3015L5.41771 37.2129L10.2214 36.2522L5.86557 58.0314L29.8118 53.2421L28.75 58.5515L0 64.3015ZM32.759 57.7497L38.1767 30.6612L42.9804 29.7005L37.5627 56.789L32.759 57.7497ZM72.6331 49.7751L52.6093 33.0452L48.2896 54.6438L43.4859 55.6045L48.9036 28.516L55.2242 27.2519L75.2336 44.054L79.5678 22.3832L84.3715 21.4224L78.9538 48.511L72.6331 49.7751ZM84.8772 47.3263L90.2949 20.2377L121.284 14.0399L120.251 19.2048L94.0657 24.4419L92.946 30.0402L117.867 25.0559L116.856 30.1124L91.9347 35.0967L90.7139 41.2006L117.261 35.8913L116.228 41.0562L84.8772 47.3263ZM152.974 20.8082L155.669 7.16281L160.508 6.19485L157.735 20.0642C155.958 28.9492 148.647 34.9882 137.956 37.1264C127.302 39.2573 121.79 35.7828 123.567 26.8977L126.341 13.0284L131.144 12.0676L128.414 25.7203C127.287 31.3547 131.383 33.0667 139.076 31.5281C146.769 29.9894 151.847 26.4426 152.974 20.8082ZM160.762 32.1492L166.179 5.0607L189.259 0.444813C196.88 -1.07937 199.718 1.36943 198.606 6.93162C197.494 12.4938 193.398 16.3295 185.777 17.8537L167.501 21.5089L165.565 31.1885L160.762 32.1492ZM193.802 7.89232C194.221 5.79747 192.936 4.77172 189.251 5.50853L169.928 9.37317L168.556 16.2356L187.879 12.371C191.563 11.6341 193.383 9.98716 193.802 7.89232Z" transform="translate(41.2734 379.116) scale(1.1767 0.784465) rotate(-45)" fill="#9013FE"/>
<path fill-rule="evenodd" clip-rule="evenodd" d="M41.492 41.2283L36.1805 67.7857L31.3781 68.7462L33.6302 57.4859L7.05447 62.801L4.8024 74.0614L0 75.0218L5.31148 48.4645L10.1139 47.504L8.1026 57.5604L34.6783 52.2452L36.6896 42.1888L41.492 41.2283ZM62.7954 52.7408L60.77 62.868L56.0759 63.8068L58.1014 53.6796L44.8894 41.3989L45.0664 40.5136L51.4937 39.2282L61.3478 48.7132L75.9751 34.3319L82.4024 33.0464L82.2254 33.9317L62.7954 52.7408ZM80.6658 58.8888L85.9773 32.3314L109.05 27.7167C116.669 26.193 119.52 28.5804 118.429 34.0335C117.338 39.4866 113.256 43.2605 105.637 44.7843L87.3661 48.4385L85.4682 57.9283L80.6658 58.8888ZM113.627 34.994C114.037 32.9402 112.747 31.9406 109.064 32.6772L89.7457 36.5408L88.4001 43.2687L107.718 39.4051C111.401 38.6685 113.216 37.0478 113.627 34.994ZM119.266 51.1686L124.577 24.6112L155.558 18.415L154.546 23.4786L128.367 28.7143L127.269 34.2029L152.184 29.2199L151.193 34.1773L126.278 39.1602L125.081 45.1445L151.621 39.8366L150.608 44.9002L119.266 51.1686ZM162.397 32.7524L160.357 42.9504L155.555 43.9109L160.866 17.3535L185.384 12.45C192.1 11.1068 195.533 12.8337 194.393 18.5347C193.387 23.5629 189.741 26.3656 184.103 27.8673L190.071 36.1579L189.894 37.0431L184.261 38.1697L178.465 29.5387L162.397 32.7524ZM189.583 19.5306C189.958 17.6539 188.791 16.7316 185.397 17.4105L164.635 21.5629L163.402 27.7242L184.165 23.5718C187.559 22.893 189.208 21.4074 189.583 19.5306ZM236.91 2.14474L231.599 28.7021L226.796 29.6626L229.048 18.4023L202.473 23.7174L200.22 34.9778L195.418 35.9382L200.73 9.38084L205.532 8.42036L203.521 18.4768L230.096 13.1616L232.108 3.10522L236.91 2.14474ZM237.52 27.5179L242.832 0.960481L247.634 0L242.323 26.5574L237.52 27.5179Z" transform="translate(182 372.363) scale(1.1767 0.784465) rotate(-45)" stroke="#9013FE"/>
<path fill-rule="evenodd" clip-rule="evenodd" d="M0 25.908V0.408019H28.084L28.084 5.44002L4.522 5.44002V10.676H26.452L26.452 15.606H4.522L4.522 25.908H0ZM32.266 25.9081V0.408106H61.438V5.27011L36.788 5.27011V10.5401L60.248 10.5401V15.3001L36.788 15.3001L36.788 21.0461H61.778V25.9081L32.266 25.9081ZM69.87 7.684C69.87 9.52 72.352 9.758 81.702 10.54C93.058 11.492 98.532 12.682 98.532 18.428C98.532 23.256 93.806 26.316 82.79 26.316C72.794 26.316 66.946 23.12 64.498 20.876L66.878 17.408C69.666 19.006 74.426 21.284 83.13 21.284C90.236 21.284 94.01 20.502 94.01 18.666C94.01 16.83 91.63 16.184 81.532 15.334C69.87 14.348 65.382 13.09 65.382 7.786C65.382 2.38 71.706 0 80.75 0C88.298 0 94.112 1.734 97.886 4.896L95.506 8.33C91.698 6.358 87.006 5.032 80.852 5.032C74.936 5.032 69.87 5.678 69.87 7.684ZM132.498 5.40611H118.456L118.456 25.9081H113.934V5.40611L99.892 5.40611V0.408106H132.498V5.40611ZM136.34 25.9078V0.407847H140.862V25.9078H136.34ZM163.982 25.9078H159.902L144.364 1.25785V0.407847H149.464L161.942 20.7738L174.42 0.407847L179.52 0.407847L179.52 1.25785L163.982 25.9078ZM190.162 0.408192L194.378 0.408192L210.528 25.0582L210.528 25.9082H205.462L201.28 19.2782H183.26L179.078 25.9082H174.012V25.0582L190.162 0.408192ZM198.186 14.4499L192.27 5.09994L186.354 14.4499L198.186 14.4499ZM214.03 25.9079V0.407933H218.552L218.552 20.9099H241.094L241.094 25.9079H214.03Z" transform="translate(376.744 395.479) rotate(-45)" fill="#9013FE"/>
<path fill-rule="evenodd" clip-rule="evenodd" d="M0 25.5V0H4.522L4.522 20.502H27.064V25.5H0ZM30.838 25.5001V8.63167e-05H35.36V25.5001H30.838ZM68.3738 25.5003L45.4578 5.16826V25.5003H40.9358V0.00025895L46.8858 0.00025895L69.8018 20.4003V0.00025895H74.3238V25.5003H68.3738ZM79.8998 25.5002V0.000172633H109.072V4.86217H84.4218L84.4218 10.1322L107.882 10.1322V14.8922H84.4218V20.6382H109.412V25.5002H79.8998ZM141.474 12.8521L141.44 0.000129475H145.996V13.0561C145.996 21.4201 140.012 25.9081 129.948 25.9081C119.918 25.9081 113.832 21.4201 113.832 13.0561V0.000129475H118.354L118.354 12.8521C118.354 18.1561 122.706 20.6381 129.948 20.6381C137.19 20.6381 141.474 18.1561 141.474 12.8521ZM151.334 25.5V0H173.06C180.234 0 183.498 2.958 183.498 8.194C183.498 13.43 180.234 16.388 173.06 16.388H155.856V25.5H151.334ZM178.976 8.19399C178.976 6.22199 177.514 4.96399 174.046 4.96399H155.856L155.856 11.424L174.046 11.424C177.514 11.424 178.976 10.166 178.976 8.19399Z" transform="translate(526.744 394.753) rotate(-45)" stroke="#9013FE"/>
<path fill-rule="evenodd" clip-rule="evenodd" d="M41.492 41.2283L36.1805 67.7857L31.3781 68.7462L33.6302 57.4859L7.05447 62.801L4.8024 74.0614L0 75.0218L5.31148 48.4645L10.1139 47.504L8.1026 57.5604L34.6783 52.2452L36.6896 42.1888L41.492 41.2283ZM62.7954 52.7408L60.77 62.868L56.0759 63.8068L58.1014 53.6796L44.8894 41.3989L45.0664 40.5136L51.4937 39.2282L61.3478 48.7132L75.9751 34.3319L82.4024 33.0464L82.2254 33.9317L62.7954 52.7408ZM80.6658 58.8888L85.9773 32.3314L109.05 27.7167C116.669 26.193 119.52 28.5804 118.429 34.0335C117.338 39.4866 113.256 43.2605 105.637 44.7843L87.3661 48.4385L85.4682 57.9283L80.6658 58.8888ZM113.627 34.994C114.037 32.9402 112.747 31.9406 109.064 32.6772L89.7457 36.5408L88.4001 43.2687L107.718 39.4051C111.401 38.6685 113.216 37.0478 113.627 34.994ZM119.266 51.1686L124.577 24.6112L155.558 18.415L154.546 23.4786L128.367 28.7143L127.269 34.2029L152.184 29.2199L151.193 34.1773L126.278 39.1602L125.081 45.1445L151.621 39.8366L150.608 44.9002L119.266 51.1686ZM162.397 32.7524L160.357 42.9504L155.555 43.9109L160.866 17.3535L185.384 12.45C192.1 11.1067 195.533 12.8337 194.393 18.5347C193.387 23.5629 189.741 26.3656 184.103 27.8672L190.071 36.1578L189.894 37.0431L184.261 38.1697L178.465 29.5387L162.397 32.7524ZM189.583 19.5306C189.958 17.6539 188.791 16.7316 185.397 17.4104L164.635 21.5629L163.402 27.7242L184.165 23.5717C187.559 22.8929 189.208 21.4073 189.583 19.5306ZM236.91 2.14474L231.599 28.7021L226.796 29.6626L229.048 18.4023L202.473 23.7174L200.22 34.9778L195.418 35.9382L200.73 9.38084L205.532 8.42036L203.521 18.4768L230.096 13.1616L232.108 3.10522L236.91 2.14474ZM237.52 27.5179L242.832 0.960481L247.634 0L242.323 26.5574L237.52 27.5179Z" transform="translate(632 373.363) scale(1.1767 0.784465) rotate(-45)" fill="#9013FE"/>
<path fill-rule="evenodd" clip-rule="evenodd" d="M0 72.4927L5.21184 46.4335L35.0454 40.4668L34.0169 45.6091L8.98707 50.6151L7.91691 55.9659L31.2131 51.3067L30.2054 56.3448L6.90928 61.004L4.8037 71.5319L0 72.4927ZM34.276 65.6375L39.4878 39.5784L70.4771 33.3805L69.4834 38.3491L43.2978 43.5862L42.2207 48.9718L67.1422 43.9875L66.1693 48.8519L41.2478 53.8362L40.0734 59.7082L66.6202 54.3988L65.6265 59.3675L34.276 65.6375ZM77.9471 39.0247C77.5719 40.901 80.1599 40.6169 89.9325 39.4295C101.801 37.9897 107.373 38.0428 106.199 43.9148C105.212 48.8487 99.5661 52.9799 87.8639 55.3203C77.2452 57.4441 71.6861 55.4205 69.5442 53.6474L72.7813 49.5977C75.4164 50.6384 80.0073 51.955 89.2535 50.1058C96.8022 48.596 100.971 46.9951 101.346 45.1188C101.722 43.2425 99.3254 43.088 88.7721 44.3648C76.5851 45.8349 72.0746 45.5028 73.1587 40.0825C74.2636 34.5579 81.468 30.7822 91.0754 28.8607C99.0936 27.257 104.915 27.7938 108.278 30.2233L105.048 34.2383C101.406 33.0321 96.6927 32.6739 90.1553 33.9814C83.8708 35.2383 78.3571 36.9747 77.9471 39.0247ZM144.942 23.3908L130.026 26.3741L125.835 47.3257L121.032 48.2865L125.222 27.3349L110.305 30.3182L111.327 25.2106L145.964 18.2832L144.942 23.3908ZM144.834 43.5258L150.046 17.4666L154.849 16.5059L149.637 42.565L144.834 43.5258ZM174.198 37.653L169.864 38.5198L158.396 16.6305L158.569 15.7618L163.987 14.6783L173.08 32.8398L190.498 9.37615L195.915 8.29261L195.742 9.16125L174.198 37.653ZM207.22 6.03205L211.699 5.13632L223.817 26.8956L223.643 27.7643L218.261 28.8406L215.174 22.9537L196.031 26.7822L190.234 34.4461L184.852 35.5224L185.026 34.6538L207.22 6.03205ZM212.874 18.6769L208.501 10.3788L200.305 21.1907L212.874 18.6769ZM227.363 27.0199L232.575 0.960742L237.379 0L233.189 20.9516L257.135 16.1623L256.113 21.2699L227.363 27.0199Z" transform="translate(784.05 374.891) scale(1.1767 0.784465) rotate(-45)" stroke="#9013FE"/>
<path fill-rule="evenodd" clip-rule="evenodd" d="M41.492 41.2283L36.1805 67.7857L31.3781 68.7462L33.6302 57.4859L7.05447 62.801L4.8024 74.0614L0 75.0218L5.31148 48.4645L10.1139 47.504L8.1026 57.5604L34.6783 52.2452L36.6896 42.1888L41.492 41.2283ZM62.7954 52.7408L60.77 62.868L56.0759 63.8068L58.1014 53.6796L44.8894 41.3989L45.0664 40.5136L51.4937 39.2282L61.3478 48.7132L75.9751 34.3319L82.4024 33.0464L82.2254 33.9317L62.7954 52.7408ZM80.6658 58.8888L85.9773 32.3314L109.05 27.7167C116.669 26.193 119.52 28.5804 118.429 34.0335C117.338 39.4866 113.256 43.2605 105.637 44.7843L87.3661 48.4385L85.4682 57.9283L80.6658 58.8888ZM113.627 34.994C114.037 32.9402 112.747 31.9406 109.064 32.6772L89.7457 36.5408L88.4001 43.2687L107.718 39.4051C111.401 38.6685 113.216 37.0478 113.627 34.994ZM119.266 51.1686L124.577 24.6112L155.558 18.415L154.546 23.4786L128.367 28.7143L127.269 34.2029L152.184 29.2199L151.193 34.1773L126.278 39.1602L125.081 45.1445L151.621 39.8366L150.608 44.9002L119.266 51.1686ZM162.397 32.7524L160.357 42.9504L155.555 43.9109L160.866 17.3535L185.384 12.45C192.1 11.1068 195.533 12.8337 194.393 18.5347C193.387 23.5629 189.741 26.3656 184.103 27.8673L190.071 36.1579L189.894 37.0431L184.261 38.1697L178.465 29.5387L162.397 32.7524ZM189.583 19.5306C189.958 17.6539 188.791 16.7316 185.397 17.4105L164.635 21.5629L163.402 27.7242L184.165 23.5718C187.559 22.893 189.208 21.4074 189.583 19.5306ZM236.91 2.14474L231.599 28.7021L226.796 29.6626L229.048 18.4023L202.473 23.7174L200.22 34.9778L195.418 35.9382L200.73 9.38084L205.532 8.42036L203.521 18.4768L230.096 13.1616L232.108 3.10522L236.91 2.14474ZM237.52 27.5179L242.832 0.960481L247.634 0L242.323 26.5574L237.52 27.5179Z" transform="translate(-43 597.363) scale(1.1767 0.784465) rotate(-45)" stroke="#9013FE"/>
<path fill-rule="evenodd" clip-rule="evenodd" d="M0 25.908V0.408019H28.084L28.084 5.44002H4.522L4.522 10.676H26.452V15.606H4.522L4.522 25.908H0ZM32.266 25.9081V0.408106H61.438V5.27011H36.788L36.788 10.5401L60.248 10.5401V15.3001H36.788V21.0461H61.778V25.9081H32.266ZM69.87 7.684C69.87 9.52 72.352 9.758 81.702 10.54C93.058 11.492 98.532 12.682 98.532 18.428C98.532 23.256 93.806 26.316 82.79 26.316C72.794 26.316 66.946 23.12 64.498 20.876L66.878 17.408C69.666 19.006 74.426 21.284 83.13 21.284C90.236 21.284 94.01 20.502 94.01 18.666C94.01 16.83 91.63 16.184 81.532 15.334C69.87 14.348 65.382 13.09 65.382 7.786C65.382 2.38 71.706 0 80.75 0C88.298 0 94.112 1.734 97.886 4.896L95.506 8.33C91.698 6.358 87.006 5.032 80.852 5.032C74.936 5.032 69.87 5.678 69.87 7.684ZM132.498 5.40611H118.456V25.9081H113.934V5.40611H99.892V0.408106H132.498V5.40611ZM136.34 25.9078V0.407847L140.862 0.407847V25.9078L136.34 25.9078ZM163.982 25.9078H159.902L144.364 1.25785V0.407847H149.464L161.942 20.7738L174.42 0.407847H179.52V1.25785L163.982 25.9078ZM190.162 0.408192H194.378L210.528 25.0582L210.528 25.9082L205.462 25.9082L201.28 19.2782H183.26L179.078 25.9082H174.012V25.0582L190.162 0.408192ZM198.186 14.4499L192.27 5.09994L186.354 14.4499H198.186ZM214.03 25.9079V0.407933L218.552 0.407933V20.9099L241.094 20.9099V25.9079H214.03Z" transform="translate(151.744 620.479) rotate(-45)" fill="#9013FE"/>
<path fill-rule="evenodd" clip-rule="evenodd" d="M0 25.5V0H4.522L4.522 20.502H27.064L27.064 25.5H0ZM30.838 25.5001V8.63167e-05H35.36V25.5001H30.838ZM68.3738 25.5003L45.4578 5.16826V25.5003H40.9358V0.00025895H46.8858L69.8018 20.4003L69.8018 0.00025895L74.3238 0.00025895V25.5003H68.3738ZM79.8998 25.5002V0.000172633H109.072V4.86217H84.4218V10.1322H107.882V14.8922L84.4218 14.8922L84.4218 20.6382H109.412V25.5002H79.8998ZM141.474 12.8521L141.44 0.000129475H145.996V13.0561C145.996 21.4201 140.012 25.9081 129.948 25.9081C119.918 25.9081 113.832 21.4201 113.832 13.0561V0.000129475H118.354V12.8521C118.354 18.1561 122.706 20.6381 129.948 20.6381C137.19 20.6381 141.474 18.1561 141.474 12.8521ZM151.334 25.5V0H173.06C180.234 0 183.498 2.958 183.498 8.194C183.498 13.43 180.234 16.388 173.06 16.388L155.856 16.388V25.5L151.334 25.5ZM178.976 8.19399C178.976 6.22199 177.514 4.96399 174.046 4.96399L155.856 4.96399V11.424H174.046C177.514 11.424 178.976 10.166 178.976 8.19399Z" transform="translate(301.744 619.753) rotate(-45)" stroke="#9013FE"/>
<path fill-rule="evenodd" clip-rule="evenodd" d="M41.492 41.2283L36.1805 67.7857L31.3781 68.7462L33.6302 57.4859L7.05447 62.801L4.8024 74.0614L0 75.0218L5.31148 48.4645L10.1139 47.504L8.1026 57.5604L34.6783 52.2452L36.6896 42.1888L41.492 41.2283ZM62.7954 52.7408L60.77 62.868L56.0759 63.8068L58.1014 53.6796L44.8894 41.3989L45.0664 40.5136L51.4937 39.2282L61.3478 48.7132L75.9751 34.3319L82.4024 33.0464L82.2254 33.9317L62.7954 52.7408ZM80.6658 58.8888L85.9773 32.3314L109.05 27.7167C116.669 26.193 119.52 28.5804 118.429 34.0335C117.338 39.4866 113.256 43.2605 105.637 44.7843L87.3661 48.4385L85.4682 57.9283L80.6658 58.8888ZM113.627 34.994C114.037 32.9402 112.747 31.9406 109.064 32.6772L89.7457 36.5408L88.4001 43.2687L107.718 39.4051C111.401 38.6685 113.216 37.0478 113.627 34.994ZM119.266 51.1686L124.577 24.6112L155.558 18.415L154.546 23.4786L128.367 28.7143L127.269 34.2029L152.184 29.2199L151.193 34.1773L126.278 39.1602L125.081 45.1445L151.621 39.8366L150.608 44.9002L119.266 51.1686ZM162.397 32.7524L160.357 42.9504L155.555 43.9109L160.866 17.3535L185.384 12.45C192.1 11.1067 195.533 12.8337 194.393 18.5347C193.387 23.5629 189.741 26.3656 184.103 27.8672L190.071 36.1578L189.894 37.0431L184.261 38.1697L178.465 29.5387L162.397 32.7524ZM189.583 19.5306C189.958 17.6539 188.791 16.7316 185.397 17.4104L164.635 21.5629L163.402 27.7242L184.165 23.5717C187.559 22.8929 189.208 21.4073 189.583 19.5306ZM236.91 2.14474L231.599 28.7021L226.796 29.6626L229.048 18.4023L202.473 23.7174L200.22 34.9778L195.418 35.9382L200.73 9.38084L205.532 8.42036L203.521 18.4768L230.096 13.1616L232.108 3.10522L236.91 2.14474ZM237.52 27.5179L242.832 0.960481L247.634 0L242.323 26.5574L237.52 27.5179Z" transform="translate(407 598.363) scale(1.1767 0.784465) rotate(-45)" fill="#9013FE"/>
<path fill-rule="evenodd" clip-rule="evenodd" d="M0 72.4927L5.21184 46.4335L35.0454 40.4668L34.0169 45.6091L8.98707 50.6151L7.91691 55.9659L31.2131 51.3067L30.2054 56.3448L6.90928 61.004L4.8037 71.5319L0 72.4927ZM34.276 65.6375L39.4878 39.5784L70.4771 33.3805L69.4834 38.3491L43.2978 43.5862L42.2207 48.9718L67.1422 43.9875L66.1693 48.8519L41.2478 53.8362L40.0734 59.7082L66.6202 54.3988L65.6265 59.3675L34.276 65.6375ZM77.9471 39.0247C77.5719 40.901 80.1599 40.6169 89.9325 39.4295C101.801 37.9897 107.373 38.0428 106.199 43.9148C105.212 48.8487 99.5661 52.9799 87.8639 55.3203C77.2452 57.4441 71.6861 55.4205 69.5442 53.6474L72.7813 49.5977C75.4164 50.6384 80.0073 51.955 89.2535 50.1058C96.8022 48.596 100.971 46.9951 101.346 45.1188C101.722 43.2425 99.3254 43.088 88.7721 44.3648C76.5851 45.8349 72.0746 45.5028 73.1587 40.0825C74.2636 34.5579 81.468 30.7822 91.0754 28.8607C99.0936 27.257 104.915 27.7938 108.278 30.2233L105.048 34.2383C101.406 33.0321 96.6927 32.6739 90.1553 33.9814C83.8708 35.2383 78.3571 36.9747 77.9471 39.0247ZM144.942 23.3908L130.026 26.3741L125.835 47.3257L121.032 48.2865L125.222 27.3349L110.305 30.3182L111.327 25.2106L145.964 18.2832L144.942 23.3908ZM144.834 43.5258L150.046 17.4666L154.849 16.5059L149.637 42.565L144.834 43.5258ZM174.198 37.653L169.864 38.5198L158.396 16.6305L158.569 15.7618L163.987 14.6783L173.08 32.8398L190.498 9.37615L195.915 8.29261L195.742 9.16125L174.198 37.653ZM207.22 6.03205L211.699 5.13632L223.817 26.8956L223.643 27.7643L218.261 28.8406L215.174 22.9537L196.031 26.7822L190.234 34.4461L184.852 35.5224L185.026 34.6538L207.22 6.03205ZM212.874 18.6769L208.501 10.3788L200.305 21.1907L212.874 18.6769ZM227.363 27.0199L232.575 0.960742L237.379 0L233.189 20.9516L257.135 16.1623L256.113 21.2699L227.363 27.0199Z" transform="translate(559.05 599.891) scale(1.1767 0.784465) rotate(-45)" stroke="#9013FE"/>
<path fill-rule="evenodd" clip-rule="evenodd" d="M0 64.3015L5.41771 37.213L10.2214 36.2522L5.86557 58.0314L29.8118 53.2422L28.75 58.5515L0 64.3015ZM32.759 57.7498L38.1767 30.6613L42.9804 29.7005L37.5627 56.7891L32.759 57.7498ZM72.6331 49.7752L52.6093 33.0453L48.2896 54.6439L43.4859 55.6046L48.9036 28.5161L55.2242 27.2519L75.2336 44.0541L79.5678 22.3832L84.3715 21.4225L78.9538 48.511L72.6331 49.7752ZM84.8776 47.3259L90.2954 20.2373L121.285 14.0395L120.252 19.2043L94.0661 24.4415L92.9464 30.0398L117.868 25.0555L116.857 30.112L91.9351 35.0963L90.7143 41.2002L117.261 35.8909L116.228 41.0558L84.8776 47.3259ZM152.974 20.8083L155.669 7.16289L160.508 6.19492L157.735 20.0643C155.958 28.9493 148.647 34.9882 137.956 37.1264C127.302 39.2574 121.79 35.7828 123.567 26.8978L126.341 13.0285L131.144 12.0677L128.414 25.7203C127.287 31.3548 131.383 33.0668 139.076 31.5281C146.769 29.9895 151.847 26.4427 152.974 20.8083ZM160.761 32.1492L166.179 5.0607L189.259 0.444813C196.879 -1.07937 199.718 1.36943 198.606 6.93162C197.493 12.4938 193.398 16.3295 185.777 17.8537L167.501 21.5089L165.565 31.1885L160.761 32.1492ZM193.802 7.89235C194.221 5.79751 192.935 4.77176 189.251 5.50857L169.928 9.37321L168.556 16.2356L187.879 12.371C191.563 11.6342 193.383 9.9872 193.802 7.89235Z" transform="translate(716.273 604.116) scale(1.1767 0.784465) rotate(-45)" fill="#9013FE"/>
<path fill-rule="evenodd" clip-rule="evenodd" d="M0 25.908V0.408019H28.084V5.44002H4.522V10.676H26.452V15.606H4.522L4.522 25.908H0ZM32.266 25.9081V0.408106L61.438 0.408106L61.438 5.27011H36.788L36.788 10.5401L60.248 10.5401L60.248 15.3001L36.788 15.3001V21.0461H61.778V25.9081H32.266ZM69.87 7.684C69.87 9.52 72.352 9.758 81.702 10.54C93.058 11.492 98.532 12.682 98.532 18.428C98.532 23.256 93.806 26.316 82.79 26.316C72.794 26.316 66.946 23.12 64.498 20.876L66.878 17.408C69.666 19.006 74.426 21.284 83.13 21.284C90.236 21.284 94.01 20.502 94.01 18.666C94.01 16.83 91.63 16.184 81.532 15.334C69.87 14.348 65.382 13.09 65.382 7.786C65.382 2.38 71.706 0 80.75 0C88.298 0 94.112 1.734 97.886 4.896L95.506 8.33C91.698 6.358 87.006 5.032 80.852 5.032C74.936 5.032 69.87 5.678 69.87 7.684ZM132.498 5.40611H118.456V25.9081H113.934V5.40611H99.892V0.408106H132.498V5.40611ZM136.34 25.9078V0.407847H140.862V25.9078H136.34ZM163.982 25.9078L159.902 25.9078L144.364 1.25785V0.407847H149.464L161.942 20.7738L174.42 0.407847H179.52V1.25785L163.982 25.9078ZM190.162 0.408192H194.378L210.528 25.0582L210.528 25.9082L205.462 25.9082L201.28 19.2782H183.26L179.078 25.9082H174.012V25.0582L190.162 0.408192ZM198.186 14.4499L192.27 5.09994L186.354 14.4499H198.186ZM214.03 25.9079V0.407933H218.552V20.9099L241.094 20.9099V25.9079H214.03Z" transform="translate(-73.2559 845.479) rotate(-45)" fill="#9013FE"/>
<path fill-rule="evenodd" clip-rule="evenodd" d="M0 25.5V0H4.522L4.522 20.502H27.064L27.064 25.5H0ZM30.838 25.5001V8.63167e-05H35.36V25.5001H30.838ZM68.3738 25.5003L45.4578 5.16826V25.5003H40.9358V0.00025895H46.8858L69.8018 20.4003L69.8018 0.00025895L74.3238 0.00025895V25.5003H68.3738ZM79.8998 25.5002V0.000172633H109.072V4.86217H84.4218V10.1322H107.882V14.8922H84.4218V20.6382H109.412V25.5002H79.8998ZM141.474 12.8521L141.44 8.63167e-05L145.996 8.63167e-05V13.0561C145.996 21.4201 140.012 25.9081 129.948 25.9081C119.918 25.9081 113.832 21.4201 113.832 13.0561V8.63167e-05L118.354 8.63167e-05L118.354 12.8521C118.354 18.1561 122.706 20.6381 129.948 20.6381C137.19 20.6381 141.474 18.1561 141.474 12.8521ZM151.334 25.5V0H173.06C180.234 0 183.498 2.958 183.498 8.194C183.498 13.43 180.234 16.388 173.06 16.388L155.856 16.388V25.5L151.334 25.5ZM178.976 8.19399C178.976 6.22199 177.514 4.96399 174.046 4.96399L155.856 4.96399V11.424H174.046C177.514 11.424 178.976 10.166 178.976 8.19399Z" transform="translate(76.7441 844.753) rotate(-45)" stroke="#9013FE"/>
<path fill-rule="evenodd" clip-rule="evenodd" d="M41.492 41.2283L36.1805 67.7857L31.3781 68.7462L33.6302 57.4859L7.05447 62.801L4.8024 74.0614L0 75.0218L5.31148 48.4645L10.1139 47.504L8.1026 57.5604L34.6783 52.2452L36.6896 42.1888L41.492 41.2283ZM62.7954 52.7408L60.77 62.868L56.0759 63.8068L58.1014 53.6796L44.8894 41.3989L45.0664 40.5136L51.4937 39.2282L61.3478 48.7132L75.9751 34.3319L82.4024 33.0464L82.2254 33.9317L62.7954 52.7408ZM80.6658 58.8888L85.9773 32.3314L109.05 27.7167C116.669 26.193 119.52 28.5804 118.429 34.0335C117.338 39.4866 113.256 43.2605 105.637 44.7843L87.3661 48.4385L85.4682 57.9283L80.6658 58.8888ZM113.627 34.994C114.037 32.9402 112.747 31.9406 109.064 32.6772L89.7457 36.5408L88.4001 43.2687L107.718 39.4051C111.401 38.6685 113.216 37.0478 113.627 34.994ZM119.266 51.1686L124.577 24.6112L155.558 18.415L154.546 23.4786L128.367 28.7143L127.269 34.2029L152.184 29.2199L151.193 34.1773L126.278 39.1602L125.081 45.1445L151.621 39.8366L150.608 44.9002L119.266 51.1686ZM162.397 32.7523L160.357 42.9504L155.555 43.9108L160.866 17.3534L185.384 12.4499C192.1 11.1067 195.533 12.8336 194.393 18.5346C193.387 23.5628 189.741 26.3656 184.103 27.8672L190.071 36.1578L189.894 37.043L184.261 38.1696L178.465 29.5387L162.397 32.7523ZM189.583 19.5306C189.958 17.6538 188.791 16.7316 185.397 17.4104L164.634 21.5629L163.402 27.7242L184.165 23.5717C187.559 22.8929 189.208 21.4073 189.583 19.5306ZM236.91 2.14474L231.599 28.7021L226.796 29.6626L229.048 18.4023L202.473 23.7174L200.22 34.9778L195.418 35.9382L200.73 9.38084L205.532 8.42036L203.521 18.4768L230.096 13.1616L232.108 3.10522L236.91 2.14474ZM237.52 27.5179L242.832 0.960481L247.634 0L242.323 26.5574L237.52 27.5179Z" transform="translate(182 823.363) scale(1.1767 0.784465) rotate(-45)" fill="#9013FE"/>
<path fill-rule="evenodd" clip-rule="evenodd" d="M0 72.4927L5.21184 46.4335L35.0454 40.4668L34.0169 45.6091L8.98707 50.6151L7.91691 55.9659L31.2131 51.3067L30.2054 56.3448L6.90928 61.004L4.8037 71.5319L0 72.4927ZM34.276 65.6375L39.4878 39.5784L70.4771 33.3805L69.4834 38.3491L43.2978 43.5862L42.2207 48.9718L67.1422 43.9875L66.1693 48.8519L41.2478 53.8362L40.0734 59.7082L66.6202 54.3988L65.6265 59.3675L34.276 65.6375ZM77.9471 39.0247C77.5719 40.901 80.1599 40.6169 89.9325 39.4295C101.801 37.9897 107.373 38.0428 106.199 43.9148C105.212 48.8487 99.5661 52.9799 87.8639 55.3203C77.2452 57.4441 71.6861 55.4205 69.5442 53.6474L72.7813 49.5977C75.4164 50.6384 80.0073 51.955 89.2535 50.1058C96.8022 48.596 100.971 46.9951 101.346 45.1188C101.722 43.2425 99.3254 43.088 88.7721 44.3648C76.5851 45.8349 72.0746 45.5028 73.1587 40.0825C74.2636 34.5579 81.468 30.7822 91.0754 28.8607C99.0936 27.257 104.915 27.7938 108.278 30.2233L105.048 34.2383C101.406 33.0321 96.6927 32.6739 90.1553 33.9814C83.8708 35.2383 78.3571 36.9747 77.9471 39.0247ZM144.942 23.3908L130.026 26.3741L125.835 47.3257L121.032 48.2865L125.222 27.3349L110.305 30.3182L111.327 25.2106L145.964 18.2832L144.942 23.3908ZM144.834 43.5258L150.046 17.4666L154.849 16.5059L149.637 42.565L144.834 43.5258ZM174.198 37.653L169.864 38.5198L158.396 16.6305L158.569 15.7618L163.987 14.6783L173.08 32.8398L190.498 9.37615L195.915 8.29261L195.742 9.16125L174.198 37.653ZM207.22 6.03205L211.699 5.13632L223.817 26.8956L223.643 27.7643L218.261 28.8406L215.174 22.9537L196.031 26.7822L190.234 34.4461L184.852 35.5224L185.026 34.6538L207.22 6.03205ZM212.874 18.6769L208.501 10.3788L200.305 21.1907L212.874 18.6769ZM227.363 27.0199L232.575 0.960742L237.379 0L233.189 20.9516L257.135 16.1623L256.113 21.2699L227.363 27.0199Z" transform="translate(334.05 824.891) scale(1.1767 0.784465) rotate(-45)" stroke="#9013FE"/>
<path fill-rule="evenodd" clip-rule="evenodd" d="M0 64.3015L5.41771 37.213L10.2214 36.2522L5.86557 58.0314L29.8118 53.2422L28.75 58.5515L0 64.3015ZM32.759 57.7498L38.1767 30.6613L42.9804 29.7005L37.5627 56.7891L32.759 57.7498ZM72.6331 49.7752L52.6093 33.0453L48.2896 54.6439L43.4859 55.6046L48.9036 28.5161L55.2242 27.2519L75.2336 44.0541L79.5678 22.3832L84.3715 21.4225L78.9538 48.511L72.6331 49.7752ZM84.8772 47.3263L90.2949 20.2378L121.284 14.0399L120.251 19.2048L94.0656 24.4419L92.946 30.0402L117.867 25.0559L116.856 30.1124L91.9347 35.0967L90.7139 41.2007L117.261 35.8913L116.228 41.0562L84.8772 47.3263ZM152.974 20.8083L155.669 7.16285L160.508 6.19489L157.735 20.0642C155.958 28.9493 148.647 34.9882 137.956 37.1264C127.301 39.2574 121.79 35.7828 123.567 26.8978L126.341 13.0284L131.144 12.0677L128.414 25.7203C127.287 31.3547 131.383 33.0667 139.076 31.5281C146.769 29.9895 151.847 26.4427 152.974 20.8083ZM160.761 32.1492L166.179 5.0607L189.259 0.444813C196.879 -1.07937 199.718 1.36943 198.606 6.93162C197.493 12.4938 193.398 16.3295 185.777 17.8537L167.501 21.5089L165.565 31.1885L160.761 32.1492ZM193.802 7.89279C194.221 5.79795 192.935 4.7722 189.251 5.50901L169.928 9.37365L168.555 16.2361L187.879 12.3714C191.563 11.6346 193.383 9.98764 193.802 7.89279Z" transform="translate(491.273 829.116) scale(1.1767 0.784465) rotate(-45)" fill="#9013FE"/>
<path fill-rule="evenodd" clip-rule="evenodd" d="M41.492 41.2283L36.1805 67.7857L31.3781 68.7462L33.6302 57.4859L7.05447 62.801L4.8024 74.0614L0 75.0218L5.31148 48.4645L10.1139 47.504L8.1026 57.5604L34.6783 52.2452L36.6896 42.1888L41.492 41.2283ZM62.7954 52.7408L60.77 62.868L56.0759 63.8068L58.1014 53.6796L44.8894 41.3989L45.0664 40.5136L51.4937 39.2282L61.3478 48.7132L75.9751 34.3319L82.4024 33.0464L82.2254 33.9317L62.7954 52.7408ZM80.6658 58.8888L85.9773 32.3314L109.05 27.7167C116.669 26.193 119.52 28.5804 118.429 34.0335C117.338 39.4866 113.256 43.2605 105.637 44.7843L87.3661 48.4385L85.4682 57.9283L80.6658 58.8888ZM113.627 34.994C114.037 32.9402 112.747 31.9406 109.064 32.6772L89.7457 36.5408L88.4001 43.2687L107.718 39.4051C111.401 38.6685 113.216 37.0478 113.627 34.994ZM119.266 51.1686L124.577 24.6112L155.558 18.415L154.546 23.4786L128.367 28.7143L127.269 34.2029L152.184 29.2199L151.193 34.1773L126.278 39.1602L125.081 45.1445L151.621 39.8366L150.608 44.9002L119.266 51.1686ZM162.397 32.7524L160.357 42.9504L155.555 43.9109L160.866 17.3535L185.384 12.45C192.1 11.1067 195.533 12.8337 194.393 18.5347C193.387 23.5629 189.741 26.3656 184.103 27.8672L190.071 36.1578L189.894 37.0431L184.261 38.1697L178.465 29.5387L162.397 32.7524ZM189.583 19.5306C189.958 17.6539 188.791 16.7316 185.397 17.4104L164.635 21.5629L163.402 27.7242L184.165 23.5718C187.559 22.8929 189.208 21.4073 189.583 19.5306ZM236.91 2.14474L231.599 28.7021L226.796 29.6626L229.048 18.4023L202.473 23.7174L200.22 34.9778L195.418 35.9382L200.73 9.38084L205.532 8.42036L203.521 18.4768L230.096 13.1616L232.108 3.10522L236.91 2.14474ZM237.52 27.5179L242.832 0.960481L247.634 0L242.323 26.5574L237.52 27.5179Z" transform="translate(632 822.363) scale(1.1767 0.784465) rotate(-45)" stroke="#9013FE"/>
<path fill-rule="evenodd" clip-rule="evenodd" d="M0 25.908V0.408019H28.084V5.44002H4.522V10.676H26.452V15.606H4.522V25.908H0ZM32.2659 25.9081V0.408062L61.4379 0.408062L61.4379 5.27006H36.7879L36.7879 10.5401L60.2479 10.5401L60.2479 15.3001L36.7879 15.3001V21.0461H61.7779V25.9081H32.2659ZM69.87 7.684C69.87 9.52 72.352 9.758 81.702 10.54C93.058 11.492 98.532 12.682 98.532 18.428C98.532 23.256 93.806 26.316 82.79 26.316C72.794 26.316 66.946 23.12 64.498 20.876L66.878 17.408C69.666 19.006 74.426 21.284 83.13 21.284C90.236 21.284 94.01 20.502 94.01 18.666C94.01 16.83 91.63 16.184 81.532 15.334C69.87 14.348 65.382 13.09 65.382 7.786C65.382 2.38 71.706 0 80.75 0C88.298 0 94.112 1.734 97.886 4.896L95.506 8.33C91.698 6.358 87.006 5.032 80.852 5.032C74.936 5.032 69.87 5.678 69.87 7.684ZM132.498 5.40604H118.456V25.908H113.934V5.40604H99.892V0.408041H132.498V5.40604ZM136.34 25.9078V0.407803H140.862V25.9078H136.34ZM163.982 25.9078L159.902 25.9078L144.364 1.2578V0.407803H149.464L161.942 20.7738L174.42 0.407803H179.52V1.2578L163.982 25.9078ZM190.162 0.408106H194.378L210.528 25.0581L210.528 25.9081L205.462 25.9081L201.28 19.2781H183.26L179.078 25.9081H174.012V25.0581L190.162 0.408106ZM198.186 14.4499L192.27 5.0999L186.354 14.4499H198.186ZM214.03 25.9078V0.407847H218.552V20.9098H241.094V25.9078H214.03Z" transform="translate(826.744 845.479) rotate(-45)" fill="#9013FE"/>
</g>
<defs>
<clipPath id="clip0">
<rect width="900" height="900" fill="white"/>
</clipPath>
</defs>
</svg>
